<?xml version="1.0" standalone="no"?>
<!DOCTYPE svg PUBLIC "-//W3C//DTD SVG 20010904//EN"
 "http://www.w3.org/TR/2001/REC-SVG-20010904/DTD/svg10.dtd">
<svg version="1.0" xmlns="http://www.w3.org/2000/svg"
 width="500.000000pt" height="500.000000pt" viewBox="0 0 500.000000 500.000000"
 preserveAspectRatio="xMidYMid meet">

<g transform="translate(0.000000,500.000000) scale(0.100000,-0.100000)"
fill="#000000" stroke="none">
<path d="M990 2725 c0 -19 5 -25 23 -25 19 0 30 -14 63 -88 l41 -88 -21 -43
c-35 -71 -26 -76 158 -79 151 -2 156 -2 156 18 0 19 -6 20 -140 20 -77 0 -140
3 -140 6 0 3 5 14 10 25 9 17 22 19 103 19 60 0 99 5 109 13 20 16 98 160 98
181 0 14 -21 16 -183 16 l-184 0 -11 25 c-9 20 -19 25 -47 25 -31 0 -35 -3
-35 -25z"/>
<path d="M1570 2653 c-31 -11 -60 -47 -60 -74 0 -38 27 -65 84 -86 57 -21 77
-44 60 -70 -17 -27 -76 -24 -89 5 -7 15 -18 22 -38 22 -25 0 -28 -3 -22 -22
12 -42 52 -68 104 -68 66 0 101 28 101 79 0 45 -24 70 -92 95 -25 9 -49 24
-52 31 -8 21 3 43 25 50 20 7 59 -10 59 -25 0 -6 13 -10 29 -10 25 0 28 3 24
21 -11 41 -85 69 -133 52z"/>
<path d="M2263 2639 c-98 -48 -100 -214 -2 -265 50 -25 131 -15 169 21 98 94
35 265 -97 265 -15 0 -47 -9 -70 -21z m132 -53 c73 -73 13 -202 -84 -181 -63
14 -91 97 -56 165 17 33 27 38 78 39 27 1 45 -6 62 -23z"/>
<path d="M3005 2653 c-109 -30 -131 -212 -33 -273 67 -42 185 -12 201 51 8 29
-36 25 -67 -6 -68 -68 -168 16 -142 120 17 66 105 90 145 39 14 -18 28 -24 45
-22 24 3 25 4 10 33 -8 17 -23 36 -34 43 -23 14 -96 23 -125 15z"/>
<path d="M1830 2505 l0 -145 25 0 c24 0 25 2 25 65 l0 65 70 0 70 0 0 -65 c0
-63 1 -65 25 -65 l25 0 0 145 0 145 -25 0 c-24 0 -25 -3 -25 -60 l0 -60 -70 0
-70 0 0 60 c0 57 -1 60 -25 60 l-25 0 0 -145z"/>
<path d="M2600 2505 l0 -145 25 0 c24 0 25 3 25 60 l0 60 49 0 c67 0 105 31
105 85 0 29 -7 43 -28 61 -23 21 -38 24 -102 24 l-74 0 0 -145z m148 66 c4
-40 -9 -51 -60 -51 l-38 0 0 46 0 45 48 -3 c45 -3 47 -4 50 -37z"/>
<path d="M3375 2638 c-2 -7 -25 -69 -50 -137 -25 -69 -45 -128 -45 -133 0 -4
11 -8 24 -8 19 0 27 8 36 35 11 35 12 35 70 35 58 0 59 0 71 -35 11 -28 18
-35 40 -35 l27 0 -52 143 c-52 140 -53 142 -84 145 -20 2 -34 -2 -37 -10z m74
-155 c1 -9 -13 -13 -40 -13 -38 0 -41 2 -35 23 3 13 13 41 22 63 l17 39 18
-50 c9 -27 18 -56 18 -62z"/>
<path d="M3660 2505 l0 -145 25 0 c24 0 25 3 25 60 0 53 2 60 20 60 14 0 28
-17 50 -60 27 -53 34 -60 60 -60 l30 0 -30 61 -31 60 26 20 c20 16 25 29 25
64 0 65 -30 85 -126 85 l-74 0 0 -145z m143 84 c5 -9 7 -28 3 -42 -5 -20 -14
-28 -40 -33 -47 -8 -56 0 -56 52 l0 45 41 -3 c25 -2 46 -10 52 -19z"/>
<path d="M3970 2630 c0 -17 7 -20 40 -20 l40 0 0 -125 0 -125 28 0 27 0 0 125
-1 125 43 0 c36 0 43 3 43 20 0 19 -7 20 -110 20 -103 0 -110 -1 -110 -20z"/>
<path d="M1090 2355 c-7 -8 -10 -25 -6 -39 11 -45 71 -45 82 0 8 30 -11 54
-41 54 -12 0 -28 -7 -35 -15z"/>
<path d="M1332 2358 c-7 -7 -12 -21 -12 -33 0 -46 48 -60 74 -23 20 28 20 33
0 52 -18 19 -45 21 -62 4z"/>
</g>
</svg>
